<?xml version="1.0" encoding="UTF-8"?>
<mxGraphModel dx="800" dy="800" grid="1" guides="1" tooltips="1" connect="1" arrows="1" fold="1" page="1" pageScale="1" pageWidth="800" pageHeight="1000">
  <root>
    <mxCell id="0"></mxCell>
    <mxCell id="1" parent="0"></mxCell>
    <mxCell id="s5232-01" parent="1" value="s5232-01&#xA;spine" style="shape=rectangle;rounded=1;fillColor=#f8cecc;strokeColor=#b85450;whiteSpace=wrap;html=1;" vertex="1">
      <mxGeometry as="geometry" x="240" y="100" width="100" height="50"></mxGeometry>
    </mxCell>
    <mxCell id="s5232-02" parent="1" value="s5232-02&#xA;spine" style="shape=rectangle;rounded=1;fillColor=#f8cecc;strokeColor=#b85450;whiteSpace=wrap;html=1;" vertex="1">
      <mxGeometry as="geometry" x="460" y="100" width="100" height="50"></mxGeometry>
    </mxCell>
    <mxCell id="s5248-01" parent="1" value="s5248-01&#xA;server-leaf" style="shape=rectangle;rounded=1;fillColor=#dae8fc;strokeColor=#6c8ebf;whiteSpace=wrap;html=1;" vertex="1">
      <mxGeometry as="geometry" x="20" y="400" width="100" height="50"></mxGeometry>
    </mxCell>
    <mxCell id="s5248-02" parent="1" value="s5248-02&#xA;server-leaf" style="shape=rectangle;rounded=1;fillColor=#dae8fc;strokeColor=#6c8ebf;whiteSpace=wrap;html=1;" vertex="1">
      <mxGeometry as="geometry" x="240" y="400" width="100" height="50"></mxGeometry>
    </mxCell>
    <mxCell id="s5248-03" parent="1" value="s5248-03&#xA;server-leaf" style="shape=rectangle;rounded=1;fillColor=#dae8fc;strokeColor=#6c8ebf;whiteSpace=wrap;html=1;" vertex="1">
      <mxGeometry as="geometry" x="460" y="400" width="100" height="50"></mxGeometry>
    </mxCell>
    <mxCell id="s5248-04" parent="1" value="s5248-04&#xA;server-leaf" style="shape=rectangle;rounded=1;fillColor=#dae8fc;strokeColor=#6c8ebf;whiteSpace=wrap;html=1;" vertex="1">
      <mxGeometry as="geometry" x="680" y="400" width="100" height="50"></mxGeometry>
    </mxCell>
    <mxCell id="server-1" parent="1" value="server-1" style="shape=rectangle;rounded=0;fillColor=#d5e8d4;strokeColor=#82b366;whiteSpace=wrap;html=1;" vertex="1">
      <mxGeometry as="geometry" x="-200" y="700" width="100" height="50"></mxGeometry>
    </mxCell>
    <mxCell id="server-2" parent="1" value="server-2" style="shape=rectangle;rounded=0;fillColor=#d5e8d4;strokeColor=#82b366;whiteSpace=wrap;html=1;" vertex="1">
      <mxGeometry as="geometry" x="20" y="700" width="100" height="50"></mxGeometry>
    </mxCell>
    <mxCell id="server-3" parent="1" value="server-3" style="shape=rectangle;rounded=0;fillColor=#d5e8d4;strokeColor=#82b366;whiteSpace=wrap;html=1;" vertex="1">
      <mxGeometry as="geometry" x="240" y="700" width="100" height="50"></mxGeometry>
    </mxCell>
    <mxCell id="server-4" parent="1" value="server-4" style="shape=rectangle;rounded=0;fillColor=#d5e8d4;strokeColor=#82b366;whiteSpace=wrap;html=1;" vertex="1">
      <mxGeometry as="geometry" x="460" y="700" width="100" height="50"></mxGeometry>
    </mxCell>
    <mxCell id="server-5" parent="1" value="server-5" style="shape=rectangle;rounded=0;fillColor=#d5e8d4;strokeColor=#82b366;whiteSpace=wrap;html=1;" vertex="1">
      <mxGeometry as="geometry" x="680" y="700" width="100" height="50"></mxGeometry>
    </mxCell>
    <mxCell id="server-6" parent="1" value="server-6" style="shape=rectangle;rounded=0;fillColor=#d5e8d4;strokeColor=#82b366;whiteSpace=wrap;html=1;" vertex="1">
      <mxGeometry as="geometry" x="900" y="700" width="100" height="50"></mxGeometry>
    </mxCell>
    <mxCell id="e1" parent="1" value="s5248-01/E1/55/1&#xA;s5248-02/E1/55/1" style="endArrow=none;html=1;strokeWidth=2;strokeColor=#6c8ebf;dashed=1;" edge="1" source="s5248-01" target="s5248-02">
      <mxGeometry relative="1" as="geometry"></mxGeometry>
    </mxCell>
    <mxCell id="e2" parent="1" value="s5248-01/E1/55/2&#xA;s5248-02/E1/55/2" style="endArrow=none;html=1;strokeWidth=2;strokeColor=#6c8ebf;dashed=1;" edge="1" source="s5248-01" target="s5248-02">
      <mxGeometry relative="1" as="geometry"></mxGeometry>
    </mxCell>
    <mxCell id="e3" parent="1" value="s5248-01/E1/55/1&#xA;s5248-02/E1/55/1" style="endArrow=none;html=1;strokeWidth=2;strokeColor=#6c8ebf;dashed=1;" edge="1" source="s5248-01" target="s5248-02">
      <mxGeometry relative="1" as="geometry"></mxGeometry>
    </mxCell>
    <mxCell id="e4" parent="1" value="s5248-03/E1/55/2&#xA;s5248-04/E1/55/2" style="endArrow=none;html=1;strokeWidth=2;strokeColor=#6c8ebf;dashed=1;" edge="1" source="s5248-03" target="s5248-04">
      <mxGeometry relative="1" as="geometry"></mxGeometry>
    </mxCell>
    <mxCell id="e5" parent="1" value="server-1/enp2s1&#xA;s5248-01/E1/2" style="endArrow=none;html=1;strokeWidth=2;strokeColor=#82b366;dashed=1;" edge="1" source="server-1" target="s5248-01">
      <mxGeometry relative="1" as="geometry"></mxGeometry>
    </mxCell>
    <mxCell id="e6" parent="1" value="server-1/enp2s2&#xA;s5248-02/E1/2" style="endArrow=none;html=1;strokeWidth=2;strokeColor=#82b366;dashed=1;" edge="1" source="server-1" target="s5248-02">
      <mxGeometry relative="1" as="geometry"></mxGeometry>
    </mxCell>
    <mxCell id="e7" parent="1" value="server-2/enp2s1&#xA;s5248-01/E1/3" style="endArrow=none;html=1;strokeWidth=2;strokeColor=#82b366;dashed=1;" edge="1" source="server-2" target="s5248-01">
      <mxGeometry relative="1" as="geometry"></mxGeometry>
    </mxCell>
    <mxCell id="e8" parent="1" value="server-2/enp2s2&#xA;s5248-02/E1/3" style="endArrow=none;html=1;strokeWidth=2;strokeColor=#82b366;dashed=1;" edge="1" source="server-2" target="s5248-02">
      <mxGeometry relative="1" as="geometry"></mxGeometry>
    </mxCell>
    <mxCell id="e9" parent="1" value="server-3/enp2s1&#xA;s5248-01/E1/4" style="endArrow=none;html=1;strokeWidth=2;strokeColor=#82b366;" edge="1" source="server-3" target="s5248-01">
      <mxGeometry relative="1" as="geometry"></mxGeometry>
    </mxCell>
    <mxCell id="e10" parent="1" value="server-3/enp2s2&#xA;s5248-01/E1/5" style="endArrow=none;html=1;strokeWidth=2;strokeColor=#82b366;" edge="1" source="server-3" target="s5248-01">
      <mxGeometry relative="1" as="geometry"></mxGeometry>
    </mxCell>
    <mxCell id="e11" parent="1" value="server-4/enp2s1&#xA;s5248-02/E1/4" style="endArrow=none;html=1;strokeWidth=2;strokeColor=#666666;" edge="1" source="server-4" target="s5248-02">
      <mxGeometry relative="1" as="geometry"></mxGeometry>
    </mxCell>
    <mxCell id="e12" parent="1" value="server-5/enp2s1&#xA;s5248-03/E1/1" style="endArrow=none;html=1;strokeWidth=2;strokeColor=#82b366;" edge="1" source="server-5" target="s5248-03">
      <mxGeometry relative="1" as="geometry"></mxGeometry>
    </mxCell>
    <mxCell id="e13" parent="1" value="server-5/enp2s2&#xA;s5248-03/E1/2" style="endArrow=none;html=1;strokeWidth=2;strokeColor=#82b366;" edge="1" source="server-5" target="s5248-03">
      <mxGeometry relative="1" as="geometry"></mxGeometry>
    </mxCell>
    <mxCell id="e14" parent="1" value="server-6/enp2s1&#xA;s5248-04/E1/2" style="endArrow=none;html=1;strokeWidth=2;strokeColor=#666666;" edge="1" source="server-6" target="s5248-04">
      <mxGeometry relative="1" as="geometry"></mxGeometry>
    </mxCell>
  </root>
</mxGraphModel>